<svg xmlns="http://www.w3.org/2000/svg" xmlns:xlink="http://www.w3.org/1999/xlink" width="40" zoomAndPan="magnify" viewBox="0 0 30 30.000001" height="40" preserveAspectRatio="xMidYMid meet" version="1.0"><defs><clipPath id="2c7f4e77f5"><path d="M 0.484375 0 L 29.515625 0 L 29.515625 29.03125 L 0.484375 29.03125 Z M 0.484375 0 " clip-rule="nonzero"/></clipPath><clipPath id="56d6fda142"><path d="M 0.484375 0 L 29.515625 0 L 29.515625 29 L 0.484375 29 Z M 0.484375 0 " clip-rule="nonzero"/></clipPath></defs><g clip-path="url(#2c7f4e77f5)"><path fill="#1d3a4d" d="M 17.183594 0 L 21.292969 0 C 21.308594 0 22.285156 0.117188 22.183594 0.570312 C 22.125 0.835938 21.917969 0.992188 21.722656 1.144531 L 21.703125 1.164062 C 21.566406 1.265625 21.457031 1.367188 21.375 1.484375 C 21.3125 1.585938 21.273438 1.707031 21.273438 1.851562 C 21.273438 2.128906 21.449219 2.375 21.722656 2.558594 C 22.027344 2.765625 22.4375 2.886719 22.90625 2.886719 C 23.371094 2.886719 23.785156 2.765625 24.085938 2.558594 C 24.363281 2.375 24.535156 2.128906 24.535156 1.851562 C 24.535156 1.511719 24.316406 1.328125 24.023438 1.097656 L 23.988281 1.074219 C 23.914062 1.015625 23.832031 0.9375 23.769531 0.871094 C 23.695312 0.777344 23.648438 0.6875 23.613281 0.570312 C 23.519531 0.117188 24.511719 0 24.511719 0 L 28.625 0 C 28.871094 0 29.085938 0.09375 29.25 0.257812 C 29.414062 0.421875 29.515625 0.640625 29.515625 0.886719 L 29.515625 4.984375 L 29.503906 4.996094 C 29.503906 5.011719 29.386719 5.992188 28.929688 5.886719 C 28.671875 5.828125 28.507812 5.621094 28.359375 5.425781 L 28.339844 5.40625 C 28.238281 5.261719 28.132812 5.160156 28.019531 5.078125 C 27.917969 5.015625 27.792969 4.976562 27.652344 4.976562 C 27.371094 4.976562 27.125 5.152344 26.941406 5.425781 C 26.738281 5.730469 26.625 6.140625 26.625 6.609375 C 26.625 7.074219 26.738281 7.480469 26.941406 7.789062 C 27.125 8.066406 27.371094 8.238281 27.652344 8.238281 C 28 8.238281 28.175781 8.019531 28.40625 7.726562 L 28.425781 7.691406 C 28.488281 7.617188 28.5625 7.535156 28.644531 7.472656 C 28.726562 7.398438 28.820312 7.351562 28.929688 7.316406 C 29.394531 7.214844 29.503906 8.210938 29.503906 8.210938 L 29.515625 8.222656 L 29.515625 12.320312 C 29.515625 12.566406 29.414062 12.785156 29.25 12.945312 C 29.210938 12.988281 29.15625 13.027344 29.109375 13.070312 C 29.164062 13.105469 29.210938 13.144531 29.25 13.183594 C 29.414062 13.347656 29.515625 13.574219 29.515625 13.8125 L 29.515625 17.910156 L 29.503906 17.929688 C 29.503906 17.929688 29.386719 18.910156 28.929688 18.808594 C 28.671875 18.746094 28.507812 18.550781 28.359375 18.34375 L 28.339844 18.324219 C 28.238281 18.1875 28.132812 18.078125 28.019531 18.003906 C 27.917969 17.929688 27.792969 17.890625 27.652344 17.890625 C 27.371094 17.890625 27.125 18.066406 26.941406 18.351562 C 26.738281 18.652344 26.625 19.066406 26.625 19.53125 C 26.625 19.992188 26.738281 20.40625 26.941406 20.707031 C 27.125 20.992188 27.371094 21.171875 27.652344 21.171875 C 28 21.171875 28.175781 20.945312 28.40625 20.660156 L 28.425781 20.625 C 28.488281 20.542969 28.5625 20.460938 28.644531 20.402344 C 28.726562 20.324219 28.820312 20.277344 28.929688 20.257812 C 29.394531 20.140625 29.503906 21.136719 29.503906 21.136719 L 29.515625 21.15625 L 29.515625 25.242188 C 29.515625 25.484375 29.414062 25.710938 29.25 25.867188 C 29.085938 26.03125 28.871094 26.132812 28.625 26.132812 L 24.539062 26.132812 C 24.457031 26.144531 23.875 26.214844 23.90625 26.371094 C 23.925781 26.433594 23.960938 26.488281 24.003906 26.546875 C 24.058594 26.609375 24.117188 26.664062 24.1875 26.710938 L 24.21875 26.746094 C 24.566406 27.023438 24.832031 27.234375 24.832031 27.71875 C 24.832031 28.085938 24.609375 28.425781 24.246094 28.65625 C 23.898438 28.882812 23.429688 29.027344 22.914062 29.027344 C 22.390625 29.027344 21.917969 28.882812 21.570312 28.65625 C 21.210938 28.417969 20.988281 28.085938 20.988281 27.71875 C 20.988281 27.515625 21.046875 27.335938 21.148438 27.195312 C 21.246094 27.039062 21.375 26.914062 21.53125 26.804688 L 21.550781 26.785156 C 21.714844 26.664062 21.878906 26.527344 21.914062 26.378906 C 21.945312 26.222656 21.359375 26.152344 21.28125 26.140625 L 17.195312 26.140625 C 16.949219 26.140625 16.730469 26.039062 16.570312 25.875 C 16.527344 25.832031 16.488281 25.777344 16.445312 25.730469 C 16.414062 25.785156 16.371094 25.832031 16.332031 25.875 C 16.167969 26.039062 15.941406 26.140625 15.703125 26.140625 L 11.621094 26.140625 C 11.539062 26.152344 10.953125 26.222656 10.988281 26.378906 C 11 26.4375 11.027344 26.492188 11.082031 26.554688 C 11.125 26.609375 11.199219 26.671875 11.257812 26.71875 L 11.292969 26.75 C 11.65625 27.03125 11.917969 27.242188 11.917969 27.726562 C 11.917969 28.09375 11.695312 28.433594 11.335938 28.664062 C 10.988281 28.890625 10.515625 29.03125 9.992188 29.03125 C 9.484375 29.03125 9.011719 28.890625 8.660156 28.664062 C 8.296875 28.425781 8.074219 28.09375 8.074219 27.726562 C 8.074219 27.519531 8.136719 27.34375 8.230469 27.199219 C 8.332031 27.042969 8.453125 26.921875 8.613281 26.8125 L 8.644531 26.792969 C 8.800781 26.671875 8.964844 26.535156 9.007812 26.382812 C 9.039062 26.226562 8.453125 26.160156 8.375 26.144531 L 4.289062 26.144531 C 4.042969 26.144531 3.824219 26.042969 3.664062 25.878906 C 3.5 25.722656 3.398438 25.5 3.398438 25.253906 L 3.398438 21.171875 C 3.382812 21.09375 3.316406 20.503906 3.160156 20.535156 C 3.097656 20.558594 3.042969 20.589844 2.996094 20.632812 C 2.933594 20.6875 2.875 20.746094 2.820312 20.816406 L 2.796875 20.851562 C 2.511719 21.199219 2.292969 21.460938 1.816406 21.460938 C 1.449219 21.460938 1.109375 21.238281 0.878906 20.878906 C 0.652344 20.53125 0.511719 20.058594 0.511719 19.542969 C 0.511719 19.019531 0.652344 18.550781 0.878906 18.207031 C 1.117188 17.839844 1.449219 17.617188 1.816406 17.617188 C 2.023438 17.617188 2.199219 17.679688 2.347656 17.78125 C 2.492188 17.875 2.613281 18.003906 2.730469 18.160156 L 2.75 18.183594 C 2.875 18.34375 3.007812 18.507812 3.160156 18.542969 C 3.316406 18.582031 3.382812 17.992188 3.398438 17.910156 L 3.398438 13.824219 C 3.398438 13.585938 3.5 13.363281 3.664062 13.199219 C 3.703125 13.15625 3.757812 13.117188 3.804688 13.082031 C 3.75 13.042969 3.703125 13 3.664062 12.960938 C 3.5 12.796875 3.398438 12.578125 3.398438 12.335938 L 3.398438 8.25 C 3.382812 8.167969 3.316406 7.582031 3.160156 7.617188 C 3.097656 7.628906 3.042969 7.671875 2.996094 7.710938 C 2.933594 7.765625 2.875 7.828125 2.820312 7.894531 L 2.796875 7.917969 C 2.511719 8.277344 2.292969 8.542969 1.816406 8.542969 C 1.449219 8.542969 1.109375 8.316406 0.878906 7.957031 C 0.625 7.582031 0.484375 7.113281 0.484375 6.601562 C 0.484375 6.078125 0.625 5.609375 0.851562 5.261719 C 1.089844 4.902344 1.421875 4.675781 1.789062 4.675781 C 1.996094 4.675781 2.171875 4.738281 2.320312 4.839844 C 2.464844 4.933594 2.585938 5.066406 2.703125 5.222656 L 2.722656 5.242188 C 2.847656 5.40625 2.980469 5.5625 3.132812 5.601562 C 3.289062 5.636719 3.355469 5.050781 3.371094 4.96875 L 3.371094 0.886719 C 3.371094 0.640625 3.472656 0.421875 3.636719 0.257812 C 3.800781 0.09375 4.015625 0 4.261719 0 L 8.367188 0 C 8.367188 0 9.359375 0.117188 9.257812 0.570312 C 9.195312 0.835938 8.992188 0.992188 8.789062 1.144531 L 8.800781 1.144531 L 8.769531 1.164062 C 8.632812 1.265625 8.523438 1.367188 8.449219 1.484375 C 8.375 1.585938 8.347656 1.707031 8.347656 1.851562 C 8.347656 2.128906 8.523438 2.375 8.796875 2.558594 C 9.09375 2.765625 9.511719 2.886719 9.972656 2.886719 C 10.441406 2.886719 10.851562 2.765625 11.15625 2.558594 C 11.4375 2.375 11.605469 2.128906 11.605469 1.851562 C 11.605469 1.511719 11.390625 1.328125 11.097656 1.097656 L 11.0625 1.074219 C 10.980469 1.015625 10.90625 0.9375 10.84375 0.871094 C 10.769531 0.777344 10.722656 0.6875 10.6875 0.570312 C 10.597656 0.117188 11.578125 0 11.59375 0 L 15.703125 0 C 15.941406 0 16.167969 0.09375 16.332031 0.257812 C 16.371094 0.300781 16.414062 0.355469 16.445312 0.402344 C 16.488281 0.347656 16.527344 0.300781 16.570312 0.257812 C 16.71875 0.09375 16.9375 0 17.183594 0 Z M 16.433594 13.328125 C 16.472656 13.273438 16.515625 13.226562 16.554688 13.171875 C 16.609375 13.132812 16.652344 13.089844 16.710938 13.054688 C 16.652344 13.015625 16.609375 12.972656 16.554688 12.933594 C 16.515625 12.894531 16.472656 12.839844 16.433594 12.789062 C 16.398438 12.84375 16.359375 12.894531 16.316406 12.933594 C 16.261719 12.972656 16.222656 13.015625 16.160156 13.054688 C 16.222656 13.089844 16.261719 13.132812 16.316406 13.171875 C 16.359375 13.226562 16.40625 13.28125 16.433594 13.328125 Z M 16.433594 13.328125 " fill-opacity="1" fill-rule="nonzero"/></g><g clip-path="url(#56d6fda142)"><path fill="#6699ff" d="M 28.617188 13.191406 L 24.535156 13.191406 C 24.453125 13.207031 23.867188 13.289062 23.898438 13.429688 C 23.921875 13.503906 23.953125 13.554688 23.996094 13.605469 C 24.050781 13.667969 24.109375 13.730469 24.179688 13.785156 L 24.214844 13.804688 C 24.5625 14.089844 24.824219 14.308594 24.824219 14.777344 C 24.824219 15.160156 24.601562 15.484375 24.242188 15.730469 C 23.894531 15.957031 23.421875 16.09375 22.90625 16.09375 C 22.382812 16.09375 21.914062 15.957031 21.566406 15.730469 C 21.203125 15.484375 20.980469 15.160156 20.980469 14.777344 C 20.980469 14.574219 21.042969 14.410156 21.144531 14.253906 C 21.238281 14.109375 21.367188 13.988281 21.523438 13.867188 L 21.546875 13.851562 C 21.707031 13.714844 21.871094 13.59375 21.90625 13.429688 C 21.941406 13.289062 21.355469 13.207031 21.273438 13.191406 L 17.1875 13.191406 C 17.023438 13.191406 16.867188 13.265625 16.765625 13.375 C 16.652344 13.492188 16.582031 13.632812 16.582031 13.796875 L 16.582031 17.917969 C 16.582031 17.917969 16.46875 18.898438 16.011719 18.792969 C 15.746094 18.734375 15.589844 18.535156 15.4375 18.332031 L 15.417969 18.3125 C 15.316406 18.175781 15.214844 18.066406 15.097656 17.992188 C 14.996094 17.917969 14.875 17.875 14.730469 17.875 C 14.453125 17.875 14.207031 18.050781 14.015625 18.339844 C 13.820312 18.636719 13.695312 19.054688 13.695312 19.515625 C 13.695312 19.980469 13.820312 20.394531 14.015625 20.695312 C 14.214844 20.980469 14.457031 21.15625 14.730469 21.15625 C 15.070312 21.15625 15.253906 20.933594 15.480469 20.644531 L 15.515625 20.613281 C 15.574219 20.53125 15.648438 20.449219 15.71875 20.386719 C 15.800781 20.3125 15.902344 20.265625 16.019531 20.246094 C 16.480469 20.128906 16.589844 21.121094 16.589844 21.121094 L 16.589844 25.226562 C 16.589844 25.390625 16.664062 25.546875 16.773438 25.65625 C 16.875 25.773438 17.03125 25.832031 17.195312 25.832031 L 21.308594 25.832031 C 21.320312 25.832031 22.300781 25.949219 22.199219 26.417969 C 22.136719 26.675781 21.933594 26.828125 21.734375 26.988281 L 21.714844 27.003906 C 21.578125 27.121094 21.46875 27.222656 21.386719 27.332031 C 21.328125 27.433594 21.285156 27.546875 21.285156 27.699219 C 21.285156 27.964844 21.464844 28.222656 21.734375 28.40625 C 22.042969 28.601562 22.449219 28.726562 22.921875 28.726562 C 23.382812 28.726562 23.796875 28.601562 24.097656 28.40625 C 24.375 28.222656 24.546875 27.964844 24.546875 27.699219 C 24.546875 27.351562 24.328125 27.175781 24.035156 26.941406 L 24.003906 26.921875 C 23.925781 26.847656 23.847656 26.785156 23.785156 26.703125 C 23.710938 26.621094 23.660156 26.527344 23.628906 26.417969 C 23.527344 25.949219 24.519531 25.832031 24.519531 25.832031 L 28.632812 25.832031 C 28.792969 25.832031 28.949219 25.773438 29.058594 25.65625 C 29.164062 25.539062 29.238281 25.390625 29.238281 25.226562 L 29.238281 21.144531 C 29.222656 21.066406 29.140625 20.476562 29 20.511719 C 28.9375 20.53125 28.875 20.5625 28.820312 20.605469 C 28.761719 20.660156 28.707031 20.722656 28.644531 20.789062 L 28.625 20.824219 C 28.34375 21.171875 28.132812 21.433594 27.652344 21.433594 C 27.285156 21.433594 26.941406 21.210938 26.710938 20.851562 C 26.488281 20.503906 26.34375 20.035156 26.34375 19.515625 C 26.34375 18.992188 26.488281 18.523438 26.710938 18.183594 C 26.949219 17.8125 27.285156 17.589844 27.652344 17.589844 C 27.855469 17.589844 28.019531 17.652344 28.175781 17.753906 C 28.316406 17.847656 28.441406 17.976562 28.5625 18.132812 L 28.582031 18.15625 C 28.707031 18.316406 28.828125 18.480469 28.992188 18.515625 C 29.136719 18.554688 29.214844 17.964844 29.230469 17.882812 L 29.230469 13.796875 C 29.230469 13.632812 29.15625 13.492188 29.054688 13.375 C 28.929688 13.265625 28.78125 13.191406 28.617188 13.191406 Z M 16.296875 12.3125 L 16.296875 8.230469 C 16.28125 8.148438 16.203125 7.5625 16.058594 7.597656 C 15.996094 7.609375 15.9375 7.652344 15.882812 7.691406 C 15.820312 7.746094 15.757812 7.808594 15.703125 7.875 L 15.683594 7.894531 C 15.398438 8.257812 15.179688 8.523438 14.710938 8.523438 C 14.328125 8.523438 14.003906 8.296875 13.757812 7.9375 C 13.53125 7.589844 13.398438 7.121094 13.398438 6.601562 C 13.398438 6.078125 13.53125 5.609375 13.757812 5.261719 C 14.003906 4.902344 14.328125 4.675781 14.710938 4.675781 C 14.914062 4.675781 15.078125 4.738281 15.234375 4.839844 C 15.378906 4.933594 15.5 5.066406 15.621094 5.222656 L 15.636719 5.242188 C 15.773438 5.40625 15.894531 5.5625 16.058594 5.601562 C 16.203125 5.636719 16.28125 5.050781 16.296875 4.96875 L 16.296875 0.886719 C 16.296875 0.722656 16.222656 0.566406 16.113281 0.460938 C 16.011719 0.347656 15.855469 0.277344 15.691406 0.277344 L 11.605469 0.277344 C 11.523438 0.292969 10.941406 0.375 10.972656 0.515625 C 10.988281 0.578125 11.015625 0.640625 11.070312 0.695312 C 11.109375 0.753906 11.183594 0.808594 11.246094 0.871094 L 11.28125 0.890625 C 11.640625 1.175781 11.90625 1.382812 11.90625 1.863281 C 11.90625 2.246094 11.679688 2.574219 11.320312 2.804688 C 10.972656 3.027344 10.503906 3.171875 9.980469 3.171875 C 9.46875 3.171875 9 3.027344 8.644531 2.804688 C 8.285156 2.566406 8.058594 2.238281 8.058594 1.863281 C 8.058594 1.660156 8.121094 1.496094 8.214844 1.339844 C 8.320312 1.199219 8.441406 1.074219 8.597656 0.953125 L 8.632812 0.933594 C 8.789062 0.808594 8.953125 0.6875 8.992188 0.523438 C 9.027344 0.382812 8.441406 0.300781 8.359375 0.285156 L 4.277344 0.285156 C 4.113281 0.285156 3.957031 0.359375 3.847656 0.46875 C 3.746094 0.570312 3.667969 0.726562 3.667969 0.890625 L 3.667969 5.003906 C 3.667969 5.015625 3.554688 5.996094 3.085938 5.894531 C 2.824219 5.832031 2.675781 5.628906 2.511719 5.433594 L 2.5 5.410156 C 2.398438 5.269531 2.292969 5.167969 2.179688 5.085938 C 2.0625 5.023438 1.953125 4.984375 1.796875 4.984375 C 1.53125 4.984375 1.273438 5.160156 1.089844 5.433594 C 0.890625 5.726562 0.769531 6.132812 0.769531 6.601562 C 0.769531 7.066406 0.890625 7.472656 1.089844 7.78125 C 1.273438 8.058594 1.53125 8.230469 1.796875 8.230469 C 2.144531 8.230469 2.320312 8.011719 2.554688 7.71875 L 2.574219 7.683594 C 2.648438 7.605469 2.710938 7.527344 2.792969 7.46875 C 2.875 7.390625 2.96875 7.34375 3.078125 7.3125 C 3.546875 7.207031 3.664062 8.203125 3.664062 8.203125 L 3.664062 12.3125 C 3.664062 12.476562 3.738281 12.632812 3.839844 12.742188 C 3.957031 12.84375 4.105469 12.917969 4.269531 12.917969 L 8.375 12.917969 C 8.375 12.917969 9.367188 13.035156 9.265625 13.492188 C 9.203125 13.757812 9 13.914062 8.796875 14.0625 L 8.808594 14.0625 L 8.773438 14.082031 C 8.640625 14.1875 8.53125 14.289062 8.453125 14.402344 C 8.378906 14.519531 8.351562 14.628906 8.351562 14.769531 C 8.351562 15.050781 8.53125 15.300781 8.800781 15.484375 C 9.101562 15.683594 9.515625 15.804688 9.980469 15.804688 C 10.449219 15.804688 10.859375 15.683594 11.164062 15.484375 C 11.441406 15.300781 11.613281 15.042969 11.613281 14.769531 C 11.613281 14.429688 11.394531 14.261719 11.101562 14.023438 L 11.070312 13.988281 C 10.988281 13.925781 10.914062 13.851562 10.851562 13.785156 C 10.777344 13.703125 10.730469 13.601562 10.695312 13.484375 C 10.59375 13.023438 11.574219 12.914062 11.585938 12.914062 L 15.699219 12.914062 C 15.859375 12.914062 16.019531 12.839844 16.121094 12.734375 C 16.230469 12.632812 16.296875 12.476562 16.296875 12.3125 Z M 16.296875 12.3125 " fill-opacity="1" fill-rule="nonzero"/><path fill="#25478a" d="M 16.296875 25.234375 L 16.296875 21.148438 C 16.28125 21.074219 16.203125 20.484375 16.058594 20.515625 C 15.996094 20.535156 15.9375 20.570312 15.882812 20.613281 C 15.820312 20.667969 15.757812 20.726562 15.703125 20.796875 L 15.683594 20.828125 C 15.398438 21.175781 15.179688 21.441406 14.710938 21.441406 C 14.328125 21.441406 14.003906 21.21875 13.757812 20.855469 C 13.53125 20.511719 13.398438 20.039062 13.398438 19.523438 C 13.398438 19 13.53125 18.527344 13.757812 18.1875 C 14.003906 17.820312 14.328125 17.597656 14.710938 17.597656 C 14.914062 17.597656 15.078125 17.65625 15.234375 17.757812 C 15.378906 17.855469 15.5 17.984375 15.621094 18.140625 L 15.636719 18.160156 C 15.773438 18.324219 15.894531 18.488281 16.058594 18.523438 C 16.203125 18.5625 16.28125 17.972656 16.296875 17.890625 L 16.296875 13.804688 C 16.296875 13.640625 16.222656 13.5 16.113281 13.382812 C 16.011719 13.265625 15.855469 13.199219 15.691406 13.199219 L 11.605469 13.199219 C 11.523438 13.210938 10.941406 13.292969 10.972656 13.4375 C 10.988281 13.511719 11.015625 13.558594 11.070312 13.613281 C 11.109375 13.675781 11.183594 13.738281 11.246094 13.792969 L 11.28125 13.8125 C 11.640625 14.097656 11.90625 14.316406 11.90625 14.785156 C 11.90625 15.167969 11.679688 15.492188 11.320312 15.738281 C 10.972656 15.960938 10.503906 16.097656 9.980469 16.097656 C 9.46875 16.097656 9 15.960938 8.644531 15.738281 C 8.285156 15.492188 8.058594 15.167969 8.058594 14.785156 C 8.058594 14.582031 8.121094 14.417969 8.214844 14.261719 C 8.320312 14.117188 8.441406 13.996094 8.597656 13.871094 L 8.632812 13.859375 C 8.789062 13.722656 8.953125 13.601562 8.992188 13.4375 C 9.027344 13.292969 8.441406 13.210938 8.359375 13.199219 L 4.277344 13.199219 C 4.113281 13.199219 3.957031 13.273438 3.847656 13.382812 C 3.746094 13.5 3.667969 13.640625 3.667969 13.804688 L 3.667969 17.921875 C 3.667969 17.921875 3.554688 18.902344 3.085938 18.800781 C 2.824219 18.738281 2.675781 18.542969 2.511719 18.339844 L 2.5 18.316406 C 2.398438 18.183594 2.292969 18.074219 2.179688 17.996094 C 2.0625 17.921875 1.953125 17.882812 1.796875 17.882812 C 1.53125 17.882812 1.273438 18.058594 1.089844 18.34375 C 0.890625 18.644531 0.769531 19.058594 0.769531 19.523438 C 0.769531 19.984375 0.890625 20.402344 1.089844 20.699219 C 1.273438 20.984375 1.53125 21.164062 1.796875 21.164062 C 2.144531 21.164062 2.320312 20.9375 2.554688 20.652344 L 2.574219 20.617188 C 2.648438 20.535156 2.710938 20.457031 2.792969 20.394531 C 2.875 20.320312 2.96875 20.273438 3.078125 20.25 C 3.546875 20.136719 3.664062 21.128906 3.664062 21.128906 L 3.664062 25.234375 C 3.664062 25.398438 3.738281 25.554688 3.839844 25.664062 C 3.957031 25.777344 4.105469 25.839844 4.269531 25.839844 L 8.375 25.839844 C 8.375 25.839844 9.367188 25.957031 9.265625 26.425781 C 9.203125 26.683594 9 26.832031 8.796875 26.996094 L 8.808594 26.996094 L 8.773438 27.011719 C 8.640625 27.125 8.53125 27.226562 8.453125 27.335938 C 8.378906 27.4375 8.351562 27.554688 8.351562 27.703125 C 8.351562 27.96875 8.53125 28.230469 8.800781 28.414062 C 9.101562 28.609375 9.515625 28.734375 9.980469 28.734375 C 10.449219 28.734375 10.859375 28.609375 11.164062 28.414062 C 11.441406 28.230469 11.613281 27.96875 11.613281 27.703125 C 11.613281 27.359375 11.394531 27.179688 11.101562 26.949219 L 11.070312 26.929688 C 10.988281 26.855469 10.914062 26.792969 10.851562 26.710938 C 10.777344 26.628906 10.730469 26.535156 10.695312 26.425781 C 10.59375 25.957031 11.574219 25.839844 11.585938 25.839844 L 15.699219 25.839844 C 15.859375 25.839844 16.019531 25.777344 16.121094 25.664062 C 16.230469 25.554688 16.296875 25.398438 16.296875 25.234375 Z M 21.265625 0.277344 L 17.183594 0.277344 C 17.019531 0.277344 16.863281 0.355469 16.757812 0.460938 C 16.644531 0.566406 16.574219 0.722656 16.574219 0.886719 L 16.574219 4.996094 C 16.574219 5.011719 16.460938 5.992188 16.003906 5.886719 C 15.738281 5.828125 15.582031 5.621094 15.433594 5.425781 L 15.410156 5.40625 C 15.308594 5.261719 15.207031 5.160156 15.09375 5.078125 C 14.988281 5.015625 14.867188 4.976562 14.722656 4.976562 C 14.445312 4.976562 14.199219 5.152344 14.007812 5.425781 C 13.8125 5.730469 13.691406 6.140625 13.691406 6.609375 C 13.691406 7.074219 13.8125 7.480469 14.007812 7.789062 C 14.207031 8.066406 14.453125 8.238281 14.722656 8.238281 C 15.066406 8.238281 15.25 8.019531 15.472656 7.726562 L 15.507812 7.691406 C 15.570312 7.609375 15.644531 7.535156 15.710938 7.472656 C 15.792969 7.398438 15.894531 7.351562 16.011719 7.316406 C 16.472656 7.214844 16.582031 8.210938 16.582031 8.210938 L 16.582031 12.320312 C 16.582031 12.484375 16.65625 12.640625 16.765625 12.75 C 16.867188 12.851562 17.023438 12.925781 17.1875 12.925781 L 21.300781 12.925781 C 21.3125 12.925781 22.292969 13.042969 22.191406 13.5 C 22.128906 13.765625 21.925781 13.921875 21.730469 14.070312 L 21.707031 14.089844 C 21.570312 14.191406 21.464844 14.292969 21.382812 14.410156 C 21.320312 14.527344 21.28125 14.636719 21.28125 14.777344 C 21.28125 15.058594 21.457031 15.308594 21.730469 15.492188 C 22.035156 15.691406 22.445312 15.8125 22.914062 15.8125 C 23.375 15.8125 23.792969 15.691406 24.089844 15.492188 C 24.371094 15.308594 24.539062 15.050781 24.539062 14.777344 C 24.539062 14.4375 24.324219 14.269531 24.03125 14.03125 L 23.996094 13.996094 C 23.921875 13.933594 23.839844 13.859375 23.777344 13.792969 C 23.703125 13.710938 23.65625 13.605469 23.621094 13.492188 C 23.519531 13.027344 24.511719 12.917969 24.511719 12.917969 L 28.625 12.917969 C 28.789062 12.917969 28.945312 12.84375 29.054688 12.742188 C 29.15625 12.628906 29.230469 12.476562 29.230469 12.3125 L 29.230469 8.230469 C 29.214844 8.148438 29.136719 7.5625 28.992188 7.597656 C 28.929688 7.609375 28.871094 7.652344 28.816406 7.691406 C 28.753906 7.746094 28.699219 7.808594 28.636719 7.875 L 28.617188 7.894531 C 28.339844 8.257812 28.128906 8.523438 27.644531 8.523438 C 27.277344 8.523438 26.9375 8.296875 26.703125 7.9375 C 26.480469 7.589844 26.335938 7.121094 26.335938 6.601562 C 26.335938 6.078125 26.480469 5.609375 26.703125 5.261719 C 26.941406 4.902344 27.277344 4.675781 27.644531 4.675781 C 27.847656 4.675781 28.011719 4.738281 28.167969 4.839844 C 28.3125 4.933594 28.433594 5.066406 28.554688 5.222656 L 28.578125 5.242188 C 28.699219 5.40625 28.820312 5.5625 28.984375 5.601562 C 29.128906 5.636719 29.210938 5.050781 29.222656 4.96875 L 29.222656 0.886719 C 29.222656 0.722656 29.148438 0.566406 29.046875 0.460938 C 28.929688 0.347656 28.78125 0.277344 28.617188 0.277344 L 24.535156 0.277344 C 24.453125 0.292969 23.867188 0.375 23.898438 0.515625 C 23.921875 0.578125 23.953125 0.640625 23.996094 0.695312 C 24.050781 0.753906 24.109375 0.808594 24.179688 0.871094 L 24.214844 0.890625 C 24.5625 1.175781 24.824219 1.382812 24.824219 1.863281 C 24.824219 2.246094 24.601562 2.574219 24.242188 2.804688 C 23.894531 3.027344 23.421875 3.171875 22.90625 3.171875 C 22.382812 3.171875 21.914062 3.027344 21.566406 2.804688 C 21.203125 2.566406 20.980469 2.238281 20.980469 1.863281 C 20.980469 1.660156 21.042969 1.496094 21.144531 1.339844 C 21.238281 1.199219 21.367188 1.074219 21.523438 0.953125 L 21.546875 0.933594 C 21.707031 0.808594 21.871094 0.6875 21.90625 0.523438 C 21.933594 0.367188 21.347656 0.285156 21.265625 0.277344 Z M 21.265625 0.277344 " fill-opacity="1" fill-rule="nonzero"/></g><path fill="#ffffff" d="M 14.621094 3.582031 C 15.171875 3.566406 15.738281 3.582031 16.304688 3.621094 L 16.304688 4.960938 C 16.289062 5.042969 16.207031 5.628906 16.066406 5.59375 C 15.902344 5.554688 15.78125 5.398438 15.644531 5.234375 L 15.628906 5.214844 C 15.507812 5.058594 15.382812 4.929688 15.242188 4.832031 C 15.085938 4.730469 14.921875 4.667969 14.71875 4.667969 C 14.335938 4.667969 14.007812 4.894531 13.765625 5.253906 C 13.539062 5.601562 13.402344 6.070312 13.402344 6.597656 C 13.402344 7.105469 13.539062 7.578125 13.765625 7.929688 C 14.007812 8.292969 14.335938 8.515625 14.71875 8.515625 C 15.1875 8.515625 15.40625 8.25 15.691406 7.890625 L 15.710938 7.867188 C 15.765625 7.792969 15.828125 7.734375 15.886719 7.683594 C 15.941406 7.644531 16.003906 7.605469 16.066406 7.589844 C 16.207031 7.554688 16.289062 8.140625 16.304688 8.222656 L 16.304688 8.992188 C 16.121094 8.972656 15.941406 8.972656 15.773438 8.980469 C 15.507812 9.011719 15.222656 9.03125 14.960938 9.136719 C 14.757812 9.238281 14.722656 9.496094 14.722656 9.707031 C 14.738281 10.292969 14.710938 10.890625 14.886719 11.46875 C 14.960938 11.730469 15.152344 11.992188 15.4375 12.035156 C 15.726562 12.054688 16.011719 12.046875 16.296875 12 L 16.296875 12.308594 C 16.296875 12.46875 16.222656 12.628906 16.113281 12.734375 C 16.011719 12.839844 15.855469 12.914062 15.691406 12.914062 L 11.578125 12.914062 C 11.566406 12.914062 10.585938 13.027344 10.6875 13.484375 C 10.722656 13.601562 10.769531 13.703125 10.84375 13.785156 C 10.90625 13.859375 10.980469 13.925781 11.0625 13.988281 L 11.097656 14.023438 C 11.394531 14.261719 11.605469 14.429688 11.605469 14.769531 C 11.605469 15.050781 11.429688 15.300781 11.15625 15.484375 C 10.851562 15.683594 10.441406 15.804688 9.972656 15.804688 C 9.511719 15.804688 9.09375 15.683594 8.796875 15.484375 C 8.613281 15.363281 8.46875 15.207031 8.394531 15.035156 C 8.378906 14.902344 8.375 14.769531 8.375 14.636719 L 8.359375 14.558594 C 8.378906 14.507812 8.414062 14.445312 8.441406 14.398438 C 8.515625 14.28125 8.625 14.179688 8.761719 14.078125 L 8.796875 14.058594 L 8.789062 14.058594 C 8.992188 13.898438 9.195312 13.75 9.257812 13.484375 C 9.359375 13.023438 8.367188 12.914062 8.367188 12.914062 L 8.347656 12.914062 C 8.3125 10.863281 8.332031 8.808594 8.503906 6.773438 C 8.644531 5.800781 9.148438 4.746094 10.144531 4.398438 C 11.574219 3.886719 13.097656 3.636719 14.621094 3.582031 Z M 16.574219 3.640625 C 17.554688 3.738281 18.53125 3.921875 19.460938 4.234375 C 21.367188 4.90625 23.160156 6.179688 24.03125 8.054688 C 24.71875 9.617188 24.722656 11.484375 24.015625 13.035156 C 23.777344 13.117188 23.566406 13.261719 23.613281 13.484375 C 23.636719 13.546875 23.65625 13.605469 23.675781 13.648438 C 23.582031 13.8125 23.472656 13.96875 23.355469 14.117188 C 22.925781 14.664062 22.421875 15.152344 21.871094 15.574219 C 21.808594 15.539062 21.757812 15.511719 21.707031 15.480469 C 21.429688 15.296875 21.257812 15.035156 21.257812 14.765625 C 21.257812 14.621094 21.300781 14.507812 21.359375 14.398438 C 21.441406 14.28125 21.558594 14.179688 21.6875 14.078125 L 21.707031 14.058594 C 21.90625 13.898438 22.109375 13.75 22.171875 13.484375 C 22.273438 13.023438 21.292969 12.914062 21.28125 12.914062 L 17.167969 12.914062 C 17.003906 12.914062 16.847656 12.839844 16.746094 12.734375 C 16.628906 12.621094 16.5625 12.46875 16.5625 12.308594 L 16.5625 11.960938 C 17.050781 11.84375 17.515625 11.640625 17.894531 11.3125 C 18.304688 10.988281 18.421875 10.332031 18.101562 9.910156 C 17.71875 9.429688 17.160156 9.140625 16.5625 9.03125 L 16.5625 8.203125 C 16.5625 8.203125 16.445312 7.207031 15.992188 7.3125 C 15.875 7.34375 15.773438 7.390625 15.691406 7.46875 C 15.617188 7.527344 15.546875 7.605469 15.488281 7.683594 L 15.453125 7.71875 C 15.226562 8.019531 15.042969 8.230469 14.703125 8.230469 C 14.425781 8.230469 14.179688 8.054688 13.988281 7.78125 C 13.792969 7.472656 13.667969 7.066406 13.667969 6.601562 C 13.667969 6.132812 13.792969 5.726562 13.988281 5.417969 C 14.1875 5.140625 14.429688 4.96875 14.703125 4.96875 C 14.847656 4.96875 14.96875 5.011719 15.070312 5.070312 C 15.1875 5.152344 15.289062 5.253906 15.390625 5.398438 L 15.410156 5.417969 C 15.570312 5.617188 15.71875 5.820312 15.984375 5.882812 C 16.445312 5.984375 16.554688 5.003906 16.554688 4.988281 L 16.554688 3.640625 Z M 16.296875 17.390625 C 16.070312 17.390625 15.847656 17.378906 15.621094 17.359375 C 15.335938 17.316406 14.976562 17.371094 14.804688 17.601562 C 14.785156 17.601562 14.75 17.589844 14.722656 17.589844 C 14.34375 17.589844 14.015625 17.8125 13.769531 18.183594 C 13.546875 18.523438 13.410156 18.992188 13.410156 19.515625 C 13.410156 20.027344 13.546875 20.496094 13.769531 20.851562 C 13.894531 21.027344 14.03125 21.171875 14.179688 21.273438 C 14.078125 21.558594 13.914062 21.824219 13.691406 22.027344 C 13.023438 22.597656 12.105469 22.539062 11.285156 22.53125 C 10.695312 22.53125 10.066406 22.476562 9.566406 22.128906 C 9.121094 21.78125 8.898438 21.210938 8.835938 20.652344 C 8.589844 18.964844 8.507812 17.257812 8.429688 15.546875 C 8.488281 15.609375 8.5625 15.664062 8.644531 15.722656 C 8.992188 15.949219 9.460938 16.085938 9.980469 16.085938 C 10.503906 16.085938 10.972656 15.949219 11.320312 15.722656 C 11.679688 15.480469 11.90625 15.152344 11.90625 14.769531 C 11.90625 14.300781 11.640625 14.082031 11.28125 13.796875 L 11.246094 13.777344 C 11.183594 13.722656 11.109375 13.660156 11.070312 13.601562 C 11.015625 13.546875 10.988281 13.5 10.972656 13.421875 C 10.941406 13.28125 11.523438 13.199219 11.605469 13.183594 L 15.691406 13.183594 C 15.855469 13.183594 16.011719 13.261719 16.113281 13.367188 C 16.230469 13.484375 16.296875 13.628906 16.296875 13.792969 Z M 8.367188 14.078125 C 8.351562 13.777344 8.351562 13.492188 8.347656 13.199219 C 8.441406 13.21875 9.011719 13.292969 8.980469 13.4375 C 8.9375 13.601562 8.773438 13.722656 8.617188 13.859375 L 8.585938 13.871094 C 8.507812 13.933594 8.429688 14.003906 8.367188 14.078125 Z M 21.632812 15.765625 C 20.15625 16.785156 18.378906 17.363281 16.574219 17.390625 L 16.574219 13.796875 C 16.574219 13.632812 16.652344 13.492188 16.757812 13.375 C 16.863281 13.261719 17.019531 13.191406 17.183594 13.191406 L 21.265625 13.191406 C 21.347656 13.207031 21.933594 13.289062 21.898438 13.429688 C 21.863281 13.59375 21.703125 13.714844 21.539062 13.851562 L 21.519531 13.867188 C 21.359375 13.988281 21.230469 14.109375 21.136719 14.253906 C 21.035156 14.410156 20.972656 14.574219 20.972656 14.777344 C 20.972656 15.160156 21.199219 15.484375 21.558594 15.730469 C 21.578125 15.730469 21.597656 15.746094 21.632812 15.765625 Z M 14.710938 17.882812 C 14.589844 18.78125 14.511719 19.6875 14.34375 20.5625 C 14.324219 20.707031 14.300781 20.851562 14.269531 20.984375 C 14.167969 20.910156 14.085938 20.808594 14.003906 20.699219 C 13.804688 20.402344 13.683594 19.984375 13.683594 19.523438 C 13.683594 19.058594 13.804688 18.644531 14.003906 18.34375 C 14.191406 18.058594 14.4375 17.882812 14.710938 17.882812 Z M 14.710938 17.882812 " fill-opacity="1" fill-rule="evenodd"/></svg>