<svg xmlns="http://www.w3.org/2000/svg" xmlns:xlink="http://www.w3.org/1999/xlink" width="40" zoomAndPan="magnify" viewBox="0 0 30 30.000001" height="40" preserveAspectRatio="xMidYMid meet" version="1.0"><defs><clipPath id="67565f925d"><path d="M 0.484375 0 L 29.515625 0 L 29.515625 29.03125 L 0.484375 29.03125 Z M 0.484375 0 " clip-rule="nonzero"/></clipPath><clipPath id="1850ff5589"><path d="M 0.484375 0 L 29.515625 0 L 29.515625 29 L 0.484375 29 Z M 0.484375 0 " clip-rule="nonzero"/></clipPath></defs><g clip-path="url(#67565f925d)"><path fill="#1d3a4d" d="M 17.179688 0 L 21.292969 0 C 21.308594 0 22.289062 0.117188 22.1875 0.585938 C 22.125 0.84375 21.925781 0.992188 21.722656 1.15625 L 21.703125 1.171875 C 21.566406 1.273438 21.457031 1.390625 21.382812 1.492188 C 21.308594 1.605469 21.265625 1.714844 21.265625 1.871094 C 21.265625 2.136719 21.445312 2.398438 21.730469 2.582031 C 22.03125 2.777344 22.4375 2.902344 22.90625 2.902344 C 23.371094 2.902344 23.785156 2.777344 24.085938 2.582031 C 24.367188 2.398438 24.550781 2.136719 24.550781 1.871094 C 24.550781 1.523438 24.324219 1.347656 24.023438 1.117188 L 24.003906 1.097656 C 23.921875 1.019531 23.839844 0.960938 23.78125 0.878906 C 23.703125 0.796875 23.65625 0.703125 23.625 0.59375 C 23.519531 0.117188 24.515625 0 24.515625 0 L 28.621094 0 C 28.867188 0 29.09375 0.101562 29.25 0.265625 C 29.414062 0.421875 29.515625 0.648438 29.515625 0.890625 L 29.515625 4.996094 C 29.5 4.996094 29.390625 5.976562 28.929688 5.875 C 28.671875 5.820312 28.507812 5.617188 28.355469 5.414062 L 28.335938 5.390625 C 28.234375 5.257812 28.132812 5.148438 28.015625 5.074219 C 27.914062 4.996094 27.792969 4.957031 27.648438 4.957031 C 27.371094 4.957031 27.125 5.132812 26.941406 5.417969 C 26.742188 5.71875 26.621094 6.132812 26.621094 6.597656 C 26.621094 7.0625 26.742188 7.476562 26.941406 7.777344 C 27.125 8.0625 27.371094 8.238281 27.648438 8.238281 C 27.996094 8.238281 28.171875 8.015625 28.40625 7.726562 L 28.425781 7.695312 C 28.488281 7.613281 28.5625 7.539062 28.644531 7.46875 C 28.726562 7.394531 28.820312 7.347656 28.929688 7.324219 C 29.390625 7.222656 29.5 8.203125 29.515625 8.203125 L 29.515625 12.308594 C 29.515625 12.554688 29.414062 12.78125 29.25 12.9375 C 29.207031 12.992188 29.152344 13.03125 29.105469 13.058594 C 29.160156 13.101562 29.207031 13.132812 29.25 13.179688 C 29.414062 13.339844 29.515625 13.5625 29.515625 13.808594 L 29.515625 17.914062 C 29.5 17.914062 29.390625 18.90625 28.929688 18.804688 C 28.671875 18.746094 28.507812 18.539062 28.355469 18.335938 L 28.335938 18.316406 C 28.234375 18.179688 28.132812 18.070312 28.015625 17.996094 C 27.914062 17.921875 27.792969 17.878906 27.648438 17.878906 C 27.371094 17.878906 27.125 18.0625 26.941406 18.34375 C 26.742188 18.640625 26.621094 19.058594 26.621094 19.519531 C 26.621094 19.992188 26.742188 20.398438 26.941406 20.699219 C 27.125 20.984375 27.371094 21.160156 27.648438 21.160156 C 27.996094 21.160156 28.171875 20.945312 28.40625 20.652344 L 28.425781 20.617188 C 28.488281 20.535156 28.5625 20.460938 28.644531 20.398438 C 28.726562 20.324219 28.820312 20.277344 28.929688 20.242188 C 29.390625 20.140625 29.5 21.121094 29.515625 21.132812 L 29.515625 25.246094 C 29.515625 25.484375 29.414062 25.710938 29.25 25.871094 C 29.09375 26.03125 28.867188 26.132812 28.621094 26.132812 L 24.535156 26.132812 C 24.453125 26.144531 23.867188 26.226562 23.902344 26.371094 C 23.921875 26.429688 23.957031 26.492188 23.996094 26.546875 C 24.050781 26.609375 24.113281 26.664062 24.183594 26.722656 L 24.214844 26.746094 C 24.5625 27.03125 24.828125 27.234375 24.828125 27.71875 C 24.828125 28.097656 24.605469 28.425781 24.242188 28.65625 C 23.894531 28.894531 23.425781 29.027344 22.914062 29.027344 C 22.390625 29.027344 21.921875 28.890625 21.574219 28.65625 C 21.210938 28.417969 20.988281 28.09375 20.988281 27.71875 C 20.988281 27.515625 21.046875 27.351562 21.152344 27.195312 C 21.246094 27.050781 21.375 26.929688 21.53125 26.804688 L 21.550781 26.785156 C 21.714844 26.664062 21.878906 26.539062 21.914062 26.375 C 21.949219 26.234375 21.363281 26.152344 21.28125 26.136719 L 17.191406 26.136719 C 16.953125 26.136719 16.730469 26.035156 16.566406 25.878906 C 16.527344 25.824219 16.484375 25.785156 16.449219 25.722656 C 16.410156 25.785156 16.367188 25.824219 16.328125 25.878906 C 16.164062 26.035156 15.945312 26.136719 15.703125 26.136719 L 11.613281 26.136719 C 11.53125 26.152344 10.945312 26.234375 10.980469 26.375 C 10.996094 26.4375 11.035156 26.5 11.078125 26.554688 C 11.132812 26.613281 11.191406 26.667969 11.261719 26.730469 L 11.28125 26.75 C 11.640625 27.039062 11.90625 27.242188 11.90625 27.726562 C 11.90625 28.105469 11.683594 28.433594 11.320312 28.664062 C 10.972656 28.902344 10.503906 29.03125 9.980469 29.03125 C 9.46875 29.03125 9 28.894531 8.644531 28.664062 C 8.285156 28.425781 8.058594 28.097656 8.058594 27.726562 C 8.058594 27.519531 8.121094 27.355469 8.214844 27.199219 C 8.316406 27.058594 8.441406 26.933594 8.605469 26.8125 L 8.625 26.792969 C 8.789062 26.667969 8.945312 26.546875 8.984375 26.382812 C 9.019531 26.242188 8.433594 26.160156 8.351562 26.144531 L 4.265625 26.144531 C 4.019531 26.144531 3.800781 26.042969 3.636719 25.886719 C 3.476562 25.722656 3.378906 25.5 3.378906 25.261719 L 3.378906 21.175781 C 3.367188 21.09375 3.285156 20.507812 3.132812 20.542969 C 3.074219 20.554688 3.019531 20.582031 2.972656 20.636719 C 2.910156 20.691406 2.847656 20.753906 2.792969 20.8125 L 2.773438 20.847656 C 2.488281 21.210938 2.269531 21.476562 1.800781 21.476562 C 1.417969 21.476562 1.089844 21.25 0.847656 20.890625 C 0.621094 20.519531 0.484375 20.050781 0.484375 19.527344 C 0.484375 19.015625 0.621094 18.546875 0.847656 18.191406 C 1.089844 17.832031 1.417969 17.605469 1.800781 17.605469 C 1.996094 17.605469 2.167969 17.667969 2.324219 17.765625 C 2.46875 17.867188 2.589844 17.988281 2.710938 18.144531 L 2.726562 18.179688 C 2.863281 18.335938 2.984375 18.5 3.132812 18.539062 C 3.292969 18.574219 3.371094 17.988281 3.378906 17.90625 L 3.378906 13.820312 C 3.378906 13.578125 3.476562 13.351562 3.636719 13.195312 C 3.679688 13.140625 3.734375 13.113281 3.78125 13.074219 C 3.726562 13.039062 3.679688 12.996094 3.636719 12.949219 C 3.476562 12.792969 3.378906 12.570312 3.378906 12.324219 L 3.378906 8.246094 C 3.367188 8.164062 3.285156 7.570312 3.132812 7.613281 C 3.074219 7.625 3.019531 7.652344 2.972656 7.695312 C 2.910156 7.75 2.847656 7.808594 2.792969 7.878906 L 2.773438 7.910156 C 2.488281 8.257812 2.269531 8.523438 1.800781 8.523438 C 1.417969 8.523438 1.089844 8.304688 0.847656 7.9375 C 0.621094 7.597656 0.484375 7.128906 0.484375 6.605469 C 0.484375 6.082031 0.621094 5.609375 0.847656 5.269531 C 1.089844 4.902344 1.417969 4.683594 1.800781 4.683594 C 1.996094 4.683594 2.167969 4.738281 2.324219 4.839844 C 2.46875 4.9375 2.589844 5.066406 2.710938 5.222656 L 2.726562 5.242188 C 2.863281 5.40625 2.984375 5.570312 3.132812 5.605469 C 3.292969 5.644531 3.371094 5.050781 3.378906 4.96875 L 3.378906 0.890625 C 3.378906 0.648438 3.476562 0.421875 3.636719 0.265625 C 3.796875 0.101562 4.007812 0 4.25 0 L 8.367188 0 C 8.367188 0 9.359375 0.117188 9.257812 0.585938 C 9.195312 0.84375 8.992188 0.992188 8.792969 1.15625 L 8.761719 1.171875 C 8.625 1.273438 8.523438 1.390625 8.441406 1.492188 C 8.378906 1.605469 8.339844 1.714844 8.339844 1.871094 C 8.339844 2.136719 8.515625 2.398438 8.789062 2.582031 C 9.085938 2.777344 9.503906 2.902344 9.964844 2.902344 C 10.4375 2.902344 10.84375 2.777344 11.152344 2.582031 C 11.429688 2.398438 11.601562 2.136719 11.601562 1.871094 C 11.601562 1.523438 11.382812 1.347656 11.089844 1.117188 L 11.054688 1.097656 C 10.972656 1.019531 10.898438 0.960938 10.839844 0.878906 C 10.761719 0.796875 10.714844 0.703125 10.679688 0.59375 C 10.59375 0.117188 11.582031 0 11.585938 0 L 15.703125 0 C 15.945312 0 16.164062 0.101562 16.328125 0.265625 C 16.367188 0.304688 16.410156 0.359375 16.449219 0.410156 C 16.484375 0.355469 16.527344 0.304688 16.566406 0.265625 C 16.722656 0.101562 16.949219 0 17.179688 0 Z M 16.445312 13.332031 C 16.476562 13.277344 16.519531 13.230469 16.558594 13.1875 C 16.613281 13.132812 16.65625 13.105469 16.714844 13.066406 C 16.65625 13.03125 16.613281 12.992188 16.558594 12.941406 C 16.519531 12.902344 16.476562 12.847656 16.445312 12.800781 C 16.402344 12.855469 16.363281 12.902344 16.320312 12.941406 C 16.28125 12.996094 16.226562 13.039062 16.164062 13.066406 C 16.226562 13.105469 16.28125 13.140625 16.320312 13.1875 C 16.363281 13.230469 16.402344 13.285156 16.445312 13.332031 Z M 16.445312 13.332031 " fill-opacity="1" fill-rule="nonzero"/></g><g clip-path="url(#1850ff5589)"><path fill="#6699ff" d="M 28.621094 13.207031 L 24.535156 13.207031 C 24.453125 13.222656 23.867188 13.304688 23.902344 13.445312 C 23.921875 13.507812 23.957031 13.570312 23.996094 13.625 C 24.050781 13.683594 24.113281 13.738281 24.183594 13.789062 L 24.214844 13.820312 C 24.5625 14.101562 24.828125 14.3125 24.828125 14.796875 C 24.828125 15.164062 24.605469 15.503906 24.242188 15.734375 C 23.894531 15.960938 23.425781 16.101562 22.914062 16.101562 C 22.390625 16.101562 21.921875 15.960938 21.574219 15.734375 C 21.210938 15.496094 20.988281 15.164062 20.988281 14.796875 C 20.988281 14.589844 21.046875 14.414062 21.152344 14.269531 C 21.246094 14.128906 21.375 14.003906 21.53125 13.882812 L 21.550781 13.863281 C 21.714844 13.738281 21.878906 13.617188 21.914062 13.453125 C 21.949219 13.3125 21.363281 13.230469 21.28125 13.214844 L 17.191406 13.214844 C 17.03125 13.214844 16.875 13.289062 16.769531 13.394531 C 16.65625 13.507812 16.585938 13.660156 16.585938 13.820312 L 16.585938 17.925781 C 16.585938 17.925781 16.472656 18.921875 16.015625 18.820312 C 15.75 18.757812 15.59375 18.554688 15.441406 18.347656 L 15.421875 18.328125 C 15.320312 18.191406 15.21875 18.082031 15.101562 18.007812 C 15 17.933594 14.878906 17.894531 14.734375 17.894531 C 14.457031 17.894531 14.210938 18.078125 14.019531 18.355469 C 13.820312 18.65625 13.699219 19.070312 13.699219 19.535156 C 13.699219 20.003906 13.820312 20.414062 14.019531 20.710938 C 14.214844 20.996094 14.460938 21.175781 14.734375 21.175781 C 15.074219 21.175781 15.257812 20.957031 15.492188 20.664062 L 15.511719 20.628906 C 15.570312 20.546875 15.648438 20.472656 15.714844 20.414062 C 15.8125 20.335938 15.898438 20.289062 16.015625 20.253906 C 16.476562 20.152344 16.585938 21.132812 16.585938 21.148438 L 16.585938 25.261719 C 16.585938 25.421875 16.660156 25.582031 16.769531 25.683594 C 16.875 25.796875 17.03125 25.867188 17.191406 25.867188 L 21.308594 25.867188 C 21.320312 25.867188 22.300781 25.980469 22.199219 26.4375 C 22.136719 26.703125 21.941406 26.859375 21.738281 27.011719 L 21.714844 27.03125 C 21.578125 27.132812 21.472656 27.234375 21.394531 27.351562 C 21.320312 27.453125 21.28125 27.574219 21.28125 27.71875 C 21.28125 27.996094 21.457031 28.242188 21.742188 28.433594 C 22.042969 28.628906 22.453125 28.753906 22.921875 28.753906 C 23.386719 28.753906 23.800781 28.628906 24.101562 28.433594 C 24.378906 28.234375 24.5625 27.992188 24.5625 27.71875 C 24.5625 27.378906 24.339844 27.195312 24.039062 26.960938 L 24.019531 26.941406 C 23.9375 26.878906 23.855469 26.804688 23.792969 26.738281 C 23.71875 26.640625 23.671875 26.554688 23.636719 26.4375 C 23.535156 25.976562 24.527344 25.867188 24.527344 25.867188 L 28.636719 25.867188 C 28.800781 25.867188 28.957031 25.792969 29.066406 25.683594 C 29.167969 25.582031 29.242188 25.421875 29.242188 25.261719 L 29.242188 21.175781 C 29.230469 21.09375 29.148438 20.507812 29.003906 20.542969 C 28.941406 20.554688 28.882812 20.582031 28.828125 20.636719 C 28.765625 20.679688 28.710938 20.753906 28.664062 20.8125 L 28.628906 20.847656 C 28.351562 21.210938 28.140625 21.476562 27.65625 21.476562 C 27.289062 21.476562 26.945312 21.25 26.714844 20.890625 C 26.492188 20.542969 26.347656 20.070312 26.347656 19.546875 C 26.347656 19.035156 26.492188 18.566406 26.714844 18.214844 C 26.953125 17.851562 27.289062 17.628906 27.65625 17.628906 C 27.859375 17.628906 28.035156 17.6875 28.179688 17.785156 C 28.324219 17.886719 28.445312 18.007812 28.566406 18.164062 L 28.589844 18.199219 C 28.710938 18.355469 28.832031 18.519531 28.996094 18.558594 C 29.140625 18.59375 29.222656 18.007812 29.234375 17.925781 L 29.234375 13.84375 C 29.234375 13.679688 29.160156 13.523438 29.058594 13.414062 C 28.941406 13.285156 28.785156 13.207031 28.621094 13.207031 Z M 16.300781 12.316406 L 16.300781 8.238281 C 16.289062 8.15625 16.207031 7.566406 16.0625 7.605469 C 16 7.617188 15.941406 7.644531 15.886719 7.6875 C 15.824219 7.742188 15.769531 7.804688 15.707031 7.871094 L 15.6875 7.90625 C 15.402344 8.253906 15.199219 8.519531 14.714844 8.519531 C 14.332031 8.519531 14.003906 8.300781 13.773438 7.933594 C 13.535156 7.589844 13.40625 7.121094 13.40625 6.597656 C 13.40625 6.074219 13.542969 5.605469 13.773438 5.261719 C 14.011719 4.894531 14.339844 4.675781 14.714844 4.675781 C 14.917969 4.675781 15.082031 4.730469 15.238281 4.835938 C 15.382812 4.929688 15.503906 5.058594 15.625 5.214844 L 15.648438 5.234375 C 15.769531 5.398438 15.890625 5.5625 16.054688 5.597656 C 16.199219 5.636719 16.28125 5.046875 16.292969 4.964844 L 16.292969 0.890625 C 16.292969 0.714844 16.21875 0.570312 16.109375 0.464844 C 16.007812 0.347656 15.851562 0.285156 15.6875 0.285156 L 11.601562 0.285156 C 11.519531 0.300781 10.933594 0.367188 10.96875 0.523438 C 10.980469 0.585938 11.023438 0.640625 11.0625 0.703125 C 11.117188 0.753906 11.179688 0.816406 11.246094 0.863281 L 11.265625 0.886719 C 11.628906 1.171875 11.894531 1.390625 11.894531 1.867188 C 11.894531 2.234375 11.667969 2.574219 11.308594 2.804688 C 10.960938 3.03125 10.492188 3.171875 9.964844 3.171875 C 9.457031 3.171875 8.984375 3.03125 8.632812 2.804688 C 8.269531 2.566406 8.046875 2.234375 8.046875 1.867188 C 8.046875 1.660156 8.105469 1.484375 8.203125 1.335938 C 8.304688 1.191406 8.425781 1.070312 8.589844 0.953125 L 8.609375 0.933594 C 8.773438 0.808594 8.929688 0.675781 8.972656 0.523438 C 9.007812 0.367188 8.421875 0.300781 8.339844 0.285156 L 4.25 0.285156 C 4.089844 0.285156 3.929688 0.347656 3.824219 0.464844 C 3.71875 0.578125 3.644531 0.722656 3.644531 0.890625 L 3.644531 4.996094 C 3.644531 4.996094 3.53125 5.976562 3.074219 5.875 C 2.808594 5.820312 2.652344 5.617188 2.5 5.414062 L 2.480469 5.390625 C 2.378906 5.257812 2.277344 5.148438 2.160156 5.074219 C 2.042969 4.996094 1.9375 4.957031 1.792969 4.957031 C 1.511719 4.957031 1.261719 5.132812 1.078125 5.417969 C 0.886719 5.726562 0.765625 6.140625 0.765625 6.605469 C 0.765625 7.066406 0.886719 7.484375 1.085938 7.78125 C 1.269531 8.066406 1.527344 8.246094 1.800781 8.246094 C 2.140625 8.246094 2.308594 8.019531 2.550781 7.734375 L 2.582031 7.699219 C 2.644531 7.617188 2.71875 7.539062 2.789062 7.476562 C 2.867188 7.402344 2.972656 7.351562 3.085938 7.332031 C 3.550781 7.230469 3.660156 8.210938 3.660156 8.210938 L 3.660156 12.316406 C 3.660156 12.492188 3.734375 12.636719 3.835938 12.746094 C 3.953125 12.863281 4.101562 12.921875 4.265625 12.921875 L 8.378906 12.921875 C 8.378906 12.9375 9.375 13.046875 9.273438 13.507812 C 9.210938 13.765625 9.007812 13.929688 8.808594 14.082031 L 8.773438 14.101562 C 8.636719 14.203125 8.535156 14.304688 8.453125 14.421875 C 8.394531 14.523438 8.351562 14.644531 8.351562 14.789062 C 8.351562 15.066406 8.527344 15.3125 8.800781 15.496094 C 9.101562 15.695312 9.515625 15.816406 9.980469 15.816406 C 10.449219 15.816406 10.859375 15.695312 11.164062 15.496094 C 11.445312 15.3125 11.613281 15.066406 11.613281 14.789062 C 11.613281 14.441406 11.398438 14.265625 11.105469 14.03125 L 11.070312 14.011719 C 10.988281 13.949219 10.914062 13.875 10.851562 13.792969 C 10.777344 13.710938 10.730469 13.617188 10.695312 13.507812 C 10.59375 13.046875 11.574219 12.9375 11.585938 12.921875 L 15.703125 12.921875 C 15.863281 12.921875 16.023438 12.863281 16.125 12.746094 C 16.226562 12.636719 16.300781 12.492188 16.300781 12.316406 Z M 16.300781 12.316406 " fill-opacity="1" fill-rule="nonzero"/><path fill="#25478a" d="M 16.300781 25.253906 L 16.300781 21.167969 C 16.289062 21.085938 16.207031 20.5 16.0625 20.535156 C 16 20.546875 15.941406 20.574219 15.886719 20.628906 C 15.824219 20.683594 15.769531 20.746094 15.707031 20.808594 L 15.6875 20.839844 C 15.402344 21.203125 15.199219 21.46875 14.714844 21.46875 C 14.332031 21.46875 14.003906 21.242188 13.773438 20.882812 C 13.535156 20.535156 13.40625 20.066406 13.40625 19.539062 C 13.40625 19.03125 13.542969 18.558594 13.773438 18.207031 C 14.011719 17.84375 14.339844 17.621094 14.714844 17.621094 C 14.917969 17.621094 15.082031 17.683594 15.238281 17.777344 C 15.382812 17.878906 15.503906 18.003906 15.625 18.160156 L 15.648438 18.191406 C 15.769531 18.347656 15.890625 18.511719 16.054688 18.554688 C 16.199219 18.585938 16.28125 18.003906 16.292969 17.921875 L 16.292969 13.835938 C 16.292969 13.671875 16.21875 13.515625 16.109375 13.40625 C 16.007812 13.304688 15.851562 13.230469 15.6875 13.230469 L 11.601562 13.230469 C 11.519531 13.242188 10.933594 13.324219 10.96875 13.46875 C 10.980469 13.527344 11.023438 13.589844 11.0625 13.644531 C 11.117188 13.707031 11.179688 13.761719 11.246094 13.808594 L 11.265625 13.84375 C 11.628906 14.121094 11.894531 14.332031 11.894531 14.816406 C 11.894531 15.183594 11.667969 15.523438 11.308594 15.753906 C 10.960938 15.980469 10.492188 16.121094 9.964844 16.121094 C 9.457031 16.121094 8.984375 15.980469 8.632812 15.753906 C 8.269531 15.515625 8.046875 15.183594 8.046875 14.816406 C 8.046875 14.613281 8.105469 14.433594 8.203125 14.292969 C 8.304688 14.148438 8.425781 14.027344 8.589844 13.902344 L 8.609375 13.882812 C 8.773438 13.761719 8.929688 13.636719 8.972656 13.472656 C 9.007812 13.332031 8.421875 13.25 8.339844 13.234375 L 4.25 13.234375 C 4.089844 13.234375 3.929688 13.3125 3.824219 13.414062 C 3.71875 13.527344 3.644531 13.679688 3.644531 13.84375 L 3.644531 17.949219 C 3.644531 17.949219 3.53125 18.941406 3.074219 18.839844 C 2.808594 18.777344 2.652344 18.574219 2.5 18.371094 L 2.480469 18.347656 C 2.378906 18.214844 2.277344 18.105469 2.160156 18.03125 C 2.042969 17.953125 1.9375 17.914062 1.792969 17.914062 C 1.511719 17.914062 1.261719 18.097656 1.078125 18.375 C 0.878906 18.675781 0.757812 19.089844 0.757812 19.554688 C 0.757812 20.023438 0.878906 20.433594 1.078125 20.734375 C 1.261719 21.019531 1.519531 21.195312 1.792969 21.195312 C 2.132812 21.195312 2.304688 20.976562 2.542969 20.683594 L 2.574219 20.652344 C 2.636719 20.570312 2.710938 20.496094 2.78125 20.433594 C 2.863281 20.359375 2.964844 20.308594 3.082031 20.277344 C 3.542969 20.175781 3.652344 21.15625 3.652344 21.167969 L 3.652344 25.28125 C 3.652344 25.445312 3.726562 25.601562 3.828125 25.703125 C 3.945312 25.820312 4.09375 25.886719 4.257812 25.886719 L 8.371094 25.886719 C 8.371094 25.886719 9.367188 26.003906 9.265625 26.457031 C 9.203125 26.722656 9 26.878906 8.800781 27.03125 L 8.769531 27.050781 C 8.632812 27.152344 8.527344 27.253906 8.449219 27.371094 C 8.386719 27.472656 8.34375 27.59375 8.34375 27.738281 C 8.34375 28.019531 8.523438 28.261719 8.792969 28.453125 C 9.09375 28.652344 9.511719 28.773438 9.972656 28.773438 C 10.441406 28.773438 10.851562 28.652344 11.160156 28.453125 C 11.4375 28.257812 11.609375 28.011719 11.609375 27.738281 C 11.609375 27.398438 11.390625 27.214844 11.097656 26.984375 L 11.0625 26.960938 C 10.980469 26.902344 10.90625 26.828125 10.84375 26.757812 C 10.769531 26.664062 10.722656 26.574219 10.6875 26.457031 C 10.585938 25.996094 11.566406 25.886719 11.582031 25.886719 L 15.695312 25.886719 C 15.859375 25.886719 16.015625 25.8125 16.117188 25.703125 C 16.226562 25.566406 16.300781 25.417969 16.300781 25.253906 Z M 21.265625 0.285156 L 17.179688 0.285156 C 17.015625 0.285156 16.859375 0.347656 16.757812 0.464844 C 16.640625 0.578125 16.574219 0.722656 16.574219 0.890625 L 16.574219 4.996094 C 16.574219 4.996094 16.457031 5.976562 16 5.875 C 15.734375 5.820312 15.578125 5.617188 15.429688 5.414062 L 15.410156 5.390625 C 15.304688 5.257812 15.203125 5.148438 15.089844 5.074219 C 14.988281 4.996094 14.863281 4.957031 14.722656 4.957031 C 14.441406 4.957031 14.195312 5.132812 14.003906 5.417969 C 13.808594 5.71875 13.683594 6.132812 13.683594 6.597656 C 13.683594 7.0625 13.808594 7.476562 14.003906 7.777344 C 14.203125 8.0625 14.449219 8.238281 14.722656 8.238281 C 15.0625 8.238281 15.246094 8.015625 15.476562 7.726562 L 15.496094 7.695312 C 15.558594 7.613281 15.632812 7.53125 15.703125 7.46875 C 15.796875 7.394531 15.886719 7.347656 16 7.324219 C 16.464844 7.222656 16.574219 8.203125 16.574219 8.203125 L 16.574219 12.308594 C 16.574219 12.488281 16.648438 12.628906 16.757812 12.738281 C 16.859375 12.855469 17.015625 12.917969 17.179688 12.917969 L 21.292969 12.917969 C 21.308594 12.929688 22.289062 13.039062 22.1875 13.5 C 22.125 13.761719 21.925781 13.921875 21.722656 14.074219 L 21.703125 14.09375 C 21.566406 14.195312 21.457031 14.296875 21.382812 14.414062 C 21.308594 14.515625 21.265625 14.640625 21.265625 14.78125 C 21.265625 15.0625 21.445312 15.304688 21.730469 15.488281 C 22.03125 15.6875 22.4375 15.808594 22.90625 15.808594 C 23.371094 15.808594 23.785156 15.6875 24.085938 15.488281 C 24.367188 15.304688 24.550781 15.0625 24.550781 14.78125 C 24.550781 14.433594 24.324219 14.257812 24.023438 14.027344 L 24.003906 14.003906 C 23.921875 13.929688 23.839844 13.871094 23.78125 13.789062 C 23.703125 13.707031 23.65625 13.609375 23.625 13.5 C 23.519531 13.039062 24.515625 12.929688 24.515625 12.917969 L 28.621094 12.917969 C 28.785156 12.917969 28.941406 12.855469 29.050781 12.738281 C 29.152344 12.625 29.230469 12.480469 29.230469 12.308594 L 29.230469 8.230469 C 29.214844 8.148438 29.132812 7.558594 28.992188 7.597656 C 28.929688 7.613281 28.867188 7.640625 28.8125 7.679688 C 28.753906 7.734375 28.699219 7.796875 28.648438 7.863281 L 28.617188 7.898438 C 28.335938 8.246094 28.125 8.511719 27.640625 8.511719 C 27.273438 8.511719 26.933594 8.292969 26.703125 7.925781 C 26.476562 7.585938 26.335938 7.113281 26.335938 6.589844 C 26.335938 6.066406 26.476562 5.597656 26.703125 5.257812 C 26.941406 4.886719 27.273438 4.671875 27.640625 4.671875 C 27.847656 4.671875 28.023438 4.726562 28.167969 4.828125 C 28.308594 4.921875 28.433594 5.050781 28.554688 5.207031 L 28.574219 5.230469 C 28.699219 5.390625 28.820312 5.554688 28.984375 5.589844 C 29.125 5.628906 29.207031 5.039062 29.222656 4.957031 L 29.222656 0.890625 C 29.222656 0.714844 29.148438 0.570312 29.046875 0.464844 C 28.929688 0.347656 28.78125 0.285156 28.617188 0.285156 L 24.527344 0.285156 C 24.449219 0.300781 23.863281 0.367188 23.894531 0.523438 C 23.917969 0.585938 23.949219 0.640625 23.992188 0.703125 C 24.046875 0.753906 24.105469 0.816406 24.175781 0.863281 L 24.207031 0.886719 C 24.554688 1.171875 24.820312 1.390625 24.820312 1.867188 C 24.820312 2.234375 24.597656 2.574219 24.234375 2.804688 C 23.890625 3.03125 23.417969 3.171875 22.90625 3.171875 C 22.382812 3.171875 21.914062 3.03125 21.566406 2.804688 C 21.207031 2.566406 20.980469 2.234375 20.980469 1.867188 C 20.980469 1.660156 21.042969 1.484375 21.144531 1.335938 C 21.238281 1.191406 21.367188 1.070312 21.523438 0.953125 L 21.546875 0.933594 C 21.710938 0.808594 21.871094 0.675781 21.90625 0.523438 C 21.933594 0.367188 21.347656 0.300781 21.265625 0.285156 Z M 21.265625 0.285156 " fill-opacity="1" fill-rule="nonzero"/></g><path fill="#ffffff" d="M 24.175781 13.269531 C 24.160156 13.433594 24.15625 13.597656 24.132812 13.761719 C 24.078125 13.707031 24.03125 13.664062 23.992188 13.617188 C 23.949219 13.5625 23.917969 13.5 23.894531 13.441406 C 23.890625 13.371094 24.023438 13.3125 24.175781 13.269531 Z M 20.835938 3.378906 C 21.347656 3.34375 21.859375 3.410156 22.355469 3.535156 C 22.878906 3.65625 23.277344 4.097656 23.5 4.554688 C 23.703125 5.425781 23.828125 6.304688 23.941406 7.195312 C 24.148438 8.441406 24.183594 9.738281 24.203125 11.003906 C 24.242188 11.65625 24.234375 12.324219 24.203125 12.992188 C 23.921875 13.066406 23.570312 13.214844 23.628906 13.5 C 23.664062 13.617188 23.710938 13.707031 23.785156 13.789062 C 23.847656 13.871094 23.929688 13.929688 24.011719 14.003906 L 24.03125 14.027344 C 24.066406 14.046875 24.09375 14.066406 24.113281 14.101562 C 24.101562 14.242188 24.078125 14.398438 24.058594 14.550781 C 23.996094 14.910156 23.921875 15.265625 23.855469 15.625 C 23.589844 15.742188 23.261719 15.808594 22.914062 15.808594 C 22.445312 15.808594 22.035156 15.6875 21.738281 15.488281 C 21.449219 15.304688 21.273438 15.0625 21.273438 14.78125 C 21.273438 14.640625 21.3125 14.515625 21.390625 14.414062 C 21.464844 14.296875 21.574219 14.195312 21.710938 14.09375 L 21.730469 14.074219 C 21.933594 13.917969 22.132812 13.753906 22.191406 13.5 C 22.296875 13.039062 21.3125 12.929688 21.300781 12.917969 L 18.070312 12.917969 C 18.070312 12.617188 18.058594 12.324219 18.050781 12.023438 C 18.070312 11.289062 17.988281 10.558594 17.910156 9.832031 C 17.703125 8.816406 17.644531 7.78125 17.382812 6.78125 C 17.28125 6.292969 17.117188 5.800781 17.140625 5.285156 C 17.398438 4.671875 17.988281 4.269531 18.574219 3.996094 C 19.292969 3.683594 20.0625 3.492188 20.835938 3.378906 Z M 16.300781 22.753906 C 16.21875 22.753906 16.144531 22.769531 16.0625 22.769531 C 15.226562 22.726562 14.351562 22.6875 13.578125 22.320312 C 11.804688 21.625 10.246094 20.28125 9.429688 18.539062 C 9.066406 17.667969 8.875 16.75 8.761719 15.816406 C 9.101562 15.992188 9.515625 16.101562 9.964844 16.101562 C 10.492188 16.101562 10.960938 15.960938 11.308594 15.734375 C 11.667969 15.496094 11.894531 15.164062 11.894531 14.796875 C 11.894531 14.3125 11.628906 14.101562 11.265625 13.820312 L 11.246094 13.789062 C 11.171875 13.734375 11.109375 13.683594 11.0625 13.625 C 11.023438 13.570312 10.980469 13.507812 10.96875 13.445312 C 10.933594 13.304688 11.519531 13.222656 11.601562 13.207031 L 14.265625 13.207031 C 14.265625 13.242188 14.265625 13.269531 14.265625 13.304688 C 14.242188 13.582031 14.402344 13.828125 14.378906 14.09375 C 14.496094 15.117188 14.828125 16.210938 15.6875 16.851562 C 15.863281 16.988281 16.078125 17.054688 16.292969 17.054688 L 16.292969 17.90625 C 16.28125 17.988281 16.199219 18.574219 16.054688 18.539062 C 15.890625 18.5 15.769531 18.335938 15.648438 18.179688 L 15.625 18.144531 C 15.503906 17.988281 15.382812 17.867188 15.238281 17.765625 C 15.082031 17.667969 14.917969 17.605469 14.714844 17.605469 C 14.332031 17.605469 14.003906 17.832031 13.773438 18.191406 C 13.535156 18.539062 13.40625 19.011719 13.40625 19.527344 C 13.40625 20.050781 13.542969 20.519531 13.773438 20.867188 C 14.011719 21.230469 14.339844 21.453125 14.714844 21.453125 C 15.199219 21.453125 15.402344 21.1875 15.6875 20.828125 L 15.707031 20.792969 C 15.769531 20.734375 15.824219 20.671875 15.886719 20.617188 C 15.941406 20.5625 16 20.535156 16.0625 20.519531 C 16.207031 20.488281 16.289062 21.074219 16.300781 21.15625 Z M 8.816406 13.699219 C 8.835938 13.636719 8.855469 13.582031 8.871094 13.535156 C 8.902344 13.472656 8.925781 13.421875 8.953125 13.371094 C 8.972656 13.394531 8.984375 13.425781 8.984375 13.445312 C 8.957031 13.535156 8.898438 13.617188 8.816406 13.699219 Z M 23.785156 15.953125 C 23.644531 16.625 23.464844 17.308594 23.199219 17.949219 C 22.902344 18.511719 22.695312 19.113281 22.328125 19.636719 C 21.96875 20.078125 21.660156 20.574219 21.207031 20.9375 C 20.457031 21.664062 19.496094 22.113281 18.507812 22.414062 C 17.894531 22.660156 17.226562 22.714844 16.574219 22.742188 L 16.574219 21.140625 C 16.574219 21.128906 16.457031 20.148438 16 20.25 C 15.886719 20.28125 15.796875 20.332031 15.703125 20.40625 C 15.625 20.46875 15.558594 20.542969 15.496094 20.625 L 15.476562 20.65625 C 15.238281 20.957031 15.054688 21.167969 14.722656 21.167969 C 14.441406 21.167969 14.195312 20.992188 14.003906 20.707031 C 13.808594 20.40625 13.683594 19.996094 13.683594 19.527344 C 13.683594 19.0625 13.808594 18.648438 14.003906 18.347656 C 14.203125 18.070312 14.449219 17.886719 14.722656 17.886719 C 14.863281 17.886719 14.988281 17.925781 15.089844 18.003906 C 15.203125 18.078125 15.304688 18.1875 15.410156 18.320312 L 15.429688 18.34375 C 15.585938 18.546875 15.734375 18.75 16 18.8125 C 16.464844 18.914062 16.574219 17.921875 16.574219 17.921875 L 16.574219 17.007812 C 16.710938 16.972656 16.820312 16.914062 16.921875 16.824219 C 17.40625 16.421875 17.554688 15.78125 17.738281 15.21875 C 17.976562 14.570312 18.042969 13.882812 18.058594 13.207031 L 21.265625 13.207031 C 21.347656 13.222656 21.933594 13.304688 21.898438 13.445312 C 21.867188 13.609375 21.703125 13.734375 21.539062 13.855469 L 21.519531 13.875 C 21.363281 14 21.230469 14.121094 21.136719 14.265625 C 21.035156 14.40625 20.972656 14.585938 20.972656 14.789062 C 20.972656 15.15625 21.199219 15.496094 21.558594 15.726562 C 21.90625 15.953125 22.375 16.097656 22.902344 16.097656 C 23.226562 16.097656 23.519531 16.046875 23.785156 15.953125 Z M 8.734375 15.449219 C 8.699219 15.148438 8.679688 14.855469 8.660156 14.558594 C 8.644531 14.421875 8.644531 14.292969 8.679688 14.167969 C 8.699219 14.136719 8.734375 14.113281 8.761719 14.09375 L 8.792969 14.074219 C 8.992188 13.917969 9.195312 13.753906 9.257812 13.5 C 9.292969 13.34375 9.203125 13.234375 9.082031 13.15625 C 9.347656 12.792969 9.714844 12.519531 10.082031 12.28125 C 11.097656 11.777344 12.28125 11.921875 13.332031 12.222656 C 13.699219 12.304688 14.058594 12.570312 14.203125 12.917969 L 11.585938 12.917969 C 11.574219 12.929688 10.59375 13.039062 10.695312 13.5 C 10.730469 13.617188 10.777344 13.707031 10.851562 13.789062 C 10.914062 13.871094 10.988281 13.945312 11.070312 14.003906 L 11.105469 14.027344 C 11.402344 14.265625 11.613281 14.433594 11.613281 14.78125 C 11.613281 15.0625 11.4375 15.304688 11.164062 15.488281 C 10.859375 15.6875 10.449219 15.808594 9.980469 15.808594 C 9.515625 15.808594 9.101562 15.6875 8.800781 15.488281 C 8.773438 15.484375 8.753906 15.460938 8.734375 15.449219 Z M 8.734375 15.449219 " fill-opacity="1" fill-rule="evenodd"/></svg>